<svg width="48px" height="48px" viewBox="0 0 48 48" version="1" xmlns="http://www.w3.org/2000/svg" enable-background="new 0 0 48 48">
    <g fill="#37474F">
        <path d="M38.5,44.6l-4-4l2.1-2.1l4,4c0.6,0.6,0.6,1.5,0,2.1l0,0C40.1,45.1,39.1,45.1,38.5,44.6z"/>
        <path d="M9.5,44.6l4-4l-2.1-2.1l-4,4c-0.6,0.6-0.6,1.5,0,2.1l0,0C7.9,45.1,8.9,45.1,9.5,44.6z"/>
    </g>
    <circle fill="#C62828" cx="24" cy="24" r="20"/>
    <circle fill="#eee" cx="24" cy="24" r="16"/>

    <!-- START CODE GENERATED BLOCK -->
    <rect x="23" y="15" width="2" height="13" transform="rotate(42.000000, 24, 24)"/>
    <rect x="23" y="10" width="2" height="18" transform="rotate(144, 24, 24)"/>
    <!-- END CODE GENERATED BLOCK -->

    <circle cx="24" cy="24" r="2"/>
    <circle fill="#C62828" cx="24" cy="24" r="1"/>
    <rect x="22" y="1" fill="#37474F" width="4" height="3"/>

    <!-- Clock "ear" bells -->
    <g fill="#37474F">
        <path d="M44.4,16.2c2.5-3.5,2.1-8.4-1-11.5c-3.1-3.1-8-3.5-11.5-1L44.4,16.2z"/>
        <path d="M3.6,16.2c-2.5-3.5-2.1-8.4,1-11.5c3.1-3.1,8-3.5,11.5-1L3.6,16.2z"/>
    </g>

</svg>
